<mxfile host="Electron" agent="Mozilla/5.0 (Windows NT 10.0; Win64; x64) AppleWebKit/537.36 (KHTML, like Gecko) draw.io/26.0.15 Chrome/132.0.6834.196 Electron/34.2.0 Safari/537.36" version="26.0.15">
  <diagram name="Page-1" id="MsUvAoJ1YO9R0XAHC7p0">
    <mxGraphModel dx="1195" dy="697" grid="1" gridSize="10" guides="1" tooltips="1" connect="1" arrows="1" fold="1" page="1" pageScale="1" pageWidth="850" pageHeight="1100" math="0" shadow="0">
      <root>
        <mxCell id="0" />
        <mxCell id="1" parent="0" />
        <mxCell id="MtRa37t3293Gh6geokRd-1" value="" style="verticalLabelPosition=bottom;verticalAlign=top;html=1;shape=mxgraph.basic.rect;fillColor2=none;strokeWidth=1;size=20;indent=5;" vertex="1" parent="1">
          <mxGeometry x="160" y="160" width="120" height="60" as="geometry" />
        </mxCell>
        <mxCell id="MtRa37t3293Gh6geokRd-2" value="Client Devices&lt;div&gt;(Browser:React)&lt;/div&gt;" style="text;html=1;align=center;verticalAlign=middle;resizable=0;points=[];autosize=1;strokeColor=none;fillColor=none;" vertex="1" parent="1">
          <mxGeometry x="165" y="170" width="110" height="40" as="geometry" />
        </mxCell>
        <mxCell id="MtRa37t3293Gh6geokRd-3" value="&lt;br&gt;&lt;div&gt;&lt;br/&gt;&lt;/div&gt;" style="verticalLabelPosition=bottom;verticalAlign=top;html=1;shape=mxgraph.basic.rect;fillColor2=none;strokeWidth=1;size=20;indent=5;" vertex="1" parent="1">
          <mxGeometry x="335" y="160" width="125" height="60" as="geometry" />
        </mxCell>
        <mxCell id="MtRa37t3293Gh6geokRd-5" value="" style="shape=cylinder3;whiteSpace=wrap;html=1;boundedLbl=1;backgroundOutline=1;size=15;" vertex="1" parent="1">
          <mxGeometry x="530" y="145" width="110" height="90" as="geometry" />
        </mxCell>
        <mxCell id="MtRa37t3293Gh6geokRd-13" value="" style="endArrow=classic;startArrow=classic;html=1;rounded=0;entryX=-0.001;entryY=0.495;entryDx=0;entryDy=0;entryPerimeter=0;" edge="1" parent="1" target="MtRa37t3293Gh6geokRd-3">
          <mxGeometry width="50" height="50" relative="1" as="geometry">
            <mxPoint x="280" y="190" as="sourcePoint" />
            <mxPoint x="335.72" y="182" as="targetPoint" />
          </mxGeometry>
        </mxCell>
        <mxCell id="MtRa37t3293Gh6geokRd-14" value="" style="endArrow=classic;startArrow=classic;html=1;rounded=0;entryX=0;entryY=0.5;entryDx=0;entryDy=0;entryPerimeter=0;" edge="1" parent="1" target="MtRa37t3293Gh6geokRd-5">
          <mxGeometry width="50" height="50" relative="1" as="geometry">
            <mxPoint x="460" y="190.05560000000003" as="sourcePoint" />
            <mxPoint x="515" y="189.95" as="targetPoint" />
          </mxGeometry>
        </mxCell>
        <mxCell id="MtRa37t3293Gh6geokRd-15" value="Web Server&lt;div&gt;(Node js with Express)&lt;/div&gt;" style="text;html=1;align=center;verticalAlign=middle;resizable=0;points=[];autosize=1;strokeColor=none;fillColor=none;" vertex="1" parent="1">
          <mxGeometry x="327.5" y="170" width="140" height="40" as="geometry" />
        </mxCell>
        <mxCell id="MtRa37t3293Gh6geokRd-16" value="Database Server&lt;div&gt;(MongoDB)&lt;/div&gt;" style="text;html=1;align=center;verticalAlign=middle;whiteSpace=wrap;rounded=0;" vertex="1" parent="1">
          <mxGeometry x="540" y="187" width="90" height="30" as="geometry" />
        </mxCell>
      </root>
    </mxGraphModel>
  </diagram>
</mxfile>
